<?xml version="1.0" encoding="UTF-8"?>
<svg version="1.1" xmlns="http://www.w3.org/2000/svg" width="500" height="500">
<path d="M0 0 C0 43.89 0 87.78 0 133 C11.385 128.545 11.385 128.545 23 124 C23.99 123.67 24.98 123.34 26 123 C26.91757778 120.63136899 27.64149311 118.3765973 28.3125 115.9375 C28.75220983 114.46134309 29.19500435 112.98610208 29.640625 111.51171875 C29.86685547 110.75681152 30.09308594 110.0019043 30.32617188 109.22412109 C38.13453785 83.45085514 54.7121857 56.91259858 76 40 C76.66 40 77.32 40 78 40 C78.26103516 39.39333496 78.52207031 38.78666992 78.79101562 38.16162109 C80.09820383 35.82441504 81.14496525 34.89556801 83.34375 33.4140625 C84.00874512 32.96071533 84.67374023 32.50736816 85.35888672 32.0402832 C86.41873779 31.33971802 86.41873779 31.33971802 87.5 30.625 C88.21816895 30.14184326 88.93633789 29.65868652 89.67626953 29.16088867 C104.87921127 19 104.87921127 19 108 19 C108 18.34 108 17.68 108 17 C133.07264553 4.50065754 157.79931188 -0.80862359 185.8125 -0.5625 C187.39149078 -0.55561157 187.39149078 -0.55561157 189.00238037 -0.54858398 C204.49453044 -0.45567048 219.16762195 0.11835162 234 5 C234.97549805 5.31598145 235.95099609 5.63196289 236.95605469 5.95751953 C246.28592786 9.04519962 255.27483603 12.46574234 264 17 C264 17.66 264 18.32 264 19 C265.2065625 19.309375 265.2065625 19.309375 266.4375 19.625 C271.15415817 21.44546456 274.88118919 24.09892456 279 27 C280.14789988 27.77943819 281.2963745 28.55803038 282.4453125 29.3359375 C288.49578518 33.48326297 293.88291164 37.42219503 298.49609375 43.203125 C300.03564726 45.04259153 301.64531929 46.48364566 303.5 48 C314.1887293 56.93880459 322.47931343 69.76798609 329 82 C329 82.66 329 83.32 329 84 C329.66 84 330.32 84 331 84 C337.03554586 96.84556442 342.16835397 109.24993648 345.140625 123.125 C345.90106503 126.89540021 345.90106503 126.89540021 347.03867912 130.02995396 C348.48754602 135.08328223 348.26914902 140.17824642 348.24050903 145.39573669 C348.24307231 147.10754949 348.24307231 147.10754949 348.24568737 148.85394436 C348.24897898 152.67409665 348.23798375 156.4940729 348.22705078 160.31420898 C348.22537239 163.05412405 348.22671533 165.7940357 348.22793579 168.53395081 C348.22898318 174.43084469 348.22272188 180.32769422 348.21146011 186.22457695 C348.19518823 194.75041446 348.18999538 203.27623059 348.18748413 211.80208195 C348.18310968 225.63556353 348.16980735 239.46902148 348.15087891 253.30249023 C348.13251365 266.73836143 348.1183603 280.1742262 348.10986328 293.61010742 C348.10933783 294.43865313 348.10881239 295.26719883 348.10827102 296.12085199 C348.10566089 300.27752931 348.10313349 304.43420669 348.10064721 308.59088409 C348.07992249 343.06060639 348.04470375 377.53030065 348 412 C347.06333496 412.3304834 346.12666992 412.6609668 345.16162109 413.00146484 C343.91977051 413.44184082 342.67791992 413.8822168 341.3984375 414.3359375 C340.17302246 414.7695459 338.94760742 415.2031543 337.68505859 415.64990234 C333.36773885 417.23164199 329.13806276 418.9752987 324.9140625 420.7890625 C318.85021113 423.3088935 312.68486701 425.46151495 306.46484375 427.55859375 C305.77817627 427.79070557 305.09150879 428.02281738 304.3840332 428.26196289 C298.59911899 430.21691087 298.59911899 430.21691087 295.76049805 431.16333008 C293.63877957 431.87168824 291.52039822 432.58936524 289.40234375 433.30859375 C288.76360825 433.51914902 288.12487274 433.72970428 287.46678162 433.94664001 C282.92999294 435.49931288 279.10539897 437.57372763 275 440 C272.234375 441.046875 272.234375 441.046875 269.75 441.75 C268.91984375 441.99234375 268.0896875 442.2346875 267.234375 442.484375 C265 443 265 443 262 443 C262 443.66 262 444.32 262 445 C260.35 445 258.7 445 257 445 C256.505 378.67 256.505 378.67 256 311 C250.06 313.31 244.12 315.62 238 318 C235.36 318.33 232.72 318.66 230 319 C229.73832031 320.28003906 229.47664063 321.56007813 229.20703125 322.87890625 C228.05799723 328.03694921 226.44693798 332.95948402 224.6875 337.9375 C224.26307617 339.18176758 224.26307617 339.18176758 223.83007812 340.45117188 C220.24380017 350.68518458 215.1197709 359.80870963 209.3125 368.9375 C208.70253174 369.89881836 208.09256348 370.86013672 207.46411133 371.85058594 C203.37501999 378.1731605 199.08193271 383.82251504 193.79296875 389.171875 C191.92990503 390.88435429 191.92990503 390.88435429 191 393 C190.34 393 189.68 393 189 393 C189 393.66 189 394.32 189 395 C188.34 395 187.68 395 187 395 C186.70609375 395.81210937 186.70609375 395.81210937 186.40625 396.640625 C184.37088157 400.05552093 181.54157491 402.2362472 178.5 404.75 C177.90574219 405.25660156 177.31148438 405.76320313 176.69921875 406.28515625 C172.26343497 410 172.26343497 410 170 410 C170 410.66 170 411.32 170 412 C167.61379262 413.65641553 165.2321569 415.18692333 162.75 416.6875 C162.08742188 417.09677734 161.42484375 417.50605469 160.7421875 417.92773438 C159.31188701 418.80615477 157.87602669 419.67556338 156.43579102 420.53759766 C154.7024347 421.57827164 152.9800132 422.63725271 151.26538086 423.70849609 C143.81587533 428.25599038 136.30217173 431.41464995 128.0625 434.25 C126.30389648 434.88035156 126.30389648 434.88035156 124.50976562 435.5234375 C114.95902465 438.87753538 105.22392668 442.29284566 95 442 C95 442.66 95 443.32 95 444 C79.16 444 63.32 444 47 444 C47 443.34 47 442.68 47 442 C45.72125 441.938125 44.4425 441.87625 43.125 441.8125 C13.49493558 438.76602859 -14.20864803 422.88978638 -36.3125 403.8125 C-36.90611328 403.30525391 -37.49972656 402.79800781 -38.11132812 402.27539062 C-44.49931688 396.78471133 -44.49931688 396.78471133 -47 394 C-47 393.34 -47 392.68 -47 392 C-47.66 392 -48.32 392 -49 392 C-55.75973846 385.81637561 -60.86534463 377.54098922 -66 370 C-66.43812012 369.3596582 -66.87624023 368.71931641 -67.32763672 368.05957031 C-73.41825325 359.05722151 -77.91875278 350.20883221 -81.35302734 339.90087891 C-81.97277309 338.07999574 -82.65119217 336.27940134 -83.33203125 334.48046875 C-85.71703225 328.17570779 -87.67007437 321.85863425 -89.25 315.3125 C-89.49484131 314.31585327 -89.49484131 314.31585327 -89.74462891 313.29907227 C-91.90776535 303.87134502 -92.148455 294.28940209 -92.12025452 284.65473938 C-92.12110894 283.56728288 -92.12196337 282.47982639 -92.12284368 281.35941666 C-92.12448011 277.74520915 -92.11900741 274.13104889 -92.11352539 270.5168457 C-92.1132431 267.91427105 -92.11340208 265.31169631 -92.1139679 262.7091217 C-92.11449026 257.12115815 -92.11137362 251.53320634 -92.10573006 245.94524574 C-92.09757593 237.86616133 -92.09499584 229.78708256 -92.09374207 221.70799448 C-92.09155768 208.59772553 -92.08491425 195.48746283 -92.07543945 182.37719727 C-92.06624945 169.64770539 -92.05917639 156.91821523 -92.05493164 144.1887207 C-92.05466892 143.40304383 -92.05440619 142.61736695 -92.05413551 141.80788169 C-92.0528304 137.86606387 -92.05156671 133.92424603 -92.05032361 129.98242819 C-92.03997009 97.32161425 -92.0223685 64.66080796 -92 32 C-90.58444393 31.36012233 -89.16770638 30.72285802 -87.75048828 30.08666992 C-86.96167267 29.73150803 -86.17285706 29.37634613 -85.36013794 29.01042175 C-81.93358213 27.54344541 -78.42802694 26.42771674 -74.875 25.3125 C-66.6772645 22.66305167 -58.69199678 19.57817542 -50.68896484 16.39453125 C-43.52826604 13.56031163 -36.31369095 10.95362814 -29.02514648 8.46875 C-22.64251802 6.27724522 -16.44507806 3.76677867 -10.26171875 1.06640625 C-7 0 -7 0 0 0 Z M143 98 C142.09765625 98.58523437 141.1953125 99.17046875 140.265625 99.7734375 C131.36231337 105.79915946 124.45740663 113.74613658 119 123 C119 123.66 119 124.32 119 125 C119.95700806 125.33040283 119.95700806 125.33040283 120.93334961 125.66748047 C134.86896761 130.53499901 147.67818978 135.83880102 160 144 C160.63067383 144.4134668 161.26134766 144.82693359 161.91113281 145.25292969 C171.78117634 151.76623454 171.78117634 151.76623454 175.23046875 155.2578125 C176.82365777 157.23385989 176.82365777 157.23385989 179 157 C179 157.66 179 158.32 179 159 C181.63684747 161.39820305 181.63684747 161.39820305 185 162 C185 162.66 185 163.32 185 164 C185.66 164 186.32 164 187 164 C187.21914063 164.53753906 187.43828125 165.07507813 187.6640625 165.62890625 C189.45805839 168.81298668 191.8762216 171.30391908 194.375 173.9375 C199.44038919 179.321169 203.67028681 184.34057362 207 191 C207.92001533 192.4280835 208.8593597 193.8438086 209.8125 195.25 C210.33457031 196.02859375 210.85664063 196.8071875 211.39453125 197.609375 C212.42621561 199.14560572 213.46473124 200.67728274 214.51171875 202.203125 C219.49992668 209.90146165 222.16686323 218.33984434 225 227 C238.88419459 221.82933443 248.87774719 208.53284436 255.1796875 195.57421875 C256.23362491 193.0782662 257.12871607 190.56523938 258 188 C258.37253906 187.03320312 258.74507812 186.06640625 259.12890625 185.0703125 C265.44537186 166.71514762 263.32903147 145.14372165 254.90576172 127.73901367 C254.60686035 127.16513916 254.30795898 126.59126465 254 126 C253.34 126 252.68 126 252 126 C251.73574219 125.27554688 251.47148437 124.55109375 251.19921875 123.8046875 C246.11882132 111.92284595 236.51584338 103.90949952 226 97 C225.26394531 96.47277344 224.52789062 95.94554688 223.76953125 95.40234375 C200.45077999 79.70934591 165.50948068 82.27317741 143 98 Z M23.9375 219.375 C23.08575195 219.99375 23.08575195 219.99375 22.21679688 220.625 C20.77255721 221.69994429 19.38154438 222.84558735 18 224 C18 224.66 18 225.32 18 226 C17.34 226 16.68 226 16 226 C16 226.66 16 227.32 16 228 C15.34 228 14.68 228 14 228 C11.40636455 231.14177491 9.23564547 234.59752496 7 238 C6.45472656 238.82628906 5.90945312 239.65257812 5.34765625 240.50390625 C-5.65769789 257.95005289 -7.67030981 279.26960152 -3.5 299.25 C-0.48347025 312.1864343 6.16211168 323.14792778 15 333 C15.5053125 333.598125 16.010625 334.19625 16.53125 334.8125 C28.91458626 348.459442 46.92995649 356.05872206 65.06738281 357.12109375 C88.72330934 358.17574941 108.01168621 352.08716926 126.00390625 336.234375 C127.85236887 334.51338627 127.85236887 334.51338627 130 332 C130 331.34 130 330.68 130 330 C130.66 330 131.32 330 132 330 C133.28006797 328.21601386 134.47660351 326.37146094 135.625 324.5 C136.25664062 323.4790625 136.88828125 322.458125 137.5390625 321.40625 C138.26222656 320.21515625 138.26222656 320.21515625 139 319 C138.17798096 318.67725098 137.35596191 318.35450195 136.5090332 318.02197266 C133.44322843 316.81816001 130.37747947 315.61420542 127.31176758 314.41015625 C125.98789652 313.89024303 124.66400359 313.37038549 123.34008789 312.85058594 C121.431094 312.10105994 119.52218026 311.35133011 117.61328125 310.6015625 C115.89298706 309.92601318 115.89298706 309.92601318 114.13793945 309.23681641 C111.42184306 308.16626911 108.70941796 307.08731761 106 306 C106 305.34 106 304.68 106 304 C105.50113281 303.74347656 105.00226563 303.48695313 104.48828125 303.22265625 C93.22893346 297.21901838 83.16866646 289.85476062 74 281 C73.41395996 280.43974121 72.82791992 279.87948242 72.22412109 279.30224609 C64.6576129 272.0418419 57.53555495 264.97497976 52 256 C51.44441406 255.154375 50.88882813 254.30875 50.31640625 253.4375 C48.49810016 250.65132052 46.74075073 247.8352571 45 245 C44.33742187 243.92878906 43.67484375 242.85757813 42.9921875 241.75390625 C37.83645857 233.2063471 34.23321928 224.43022289 31 215 C28.57719126 215 25.88706458 217.92229588 23.9375 219.375 Z " fill="#504E4B" transform="translate(122,28)"/>
<path d="M0 0 C1.57899078 0.00688843 1.57899078 0.00688843 3.18988037 0.01391602 C18.68203044 0.10682952 33.35512195 0.68085162 48.1875 5.5625 C49.16299805 5.87848145 50.13849609 6.19446289 51.14355469 6.52001953 C60.47342786 9.60769962 69.46233603 13.02824234 78.1875 17.5625 C78.1875 18.2225 78.1875 18.8825 78.1875 19.5625 C79.3940625 19.871875 79.3940625 19.871875 80.625 20.1875 C85.34165817 22.00796456 89.06868919 24.66142456 93.1875 27.5625 C94.33539988 28.34193819 95.4838745 29.12053038 96.6328125 29.8984375 C102.68328518 34.04576297 108.07041164 37.98469503 112.68359375 43.765625 C114.22314726 45.60509153 115.83281929 47.04614566 117.6875 48.5625 C128.3762293 57.50130459 136.66681343 70.33048609 143.1875 82.5625 C143.1875 83.2225 143.1875 83.8825 143.1875 84.5625 C143.8475 84.5625 144.5075 84.5625 145.1875 84.5625 C151.22304586 97.40806442 156.35585397 109.81243648 159.328125 123.6875 C160.08856503 127.45790021 160.08856503 127.45790021 161.22617912 130.59245396 C162.67504602 135.64578223 162.45664902 140.74074642 162.42800903 145.95823669 C162.43057231 147.67004949 162.43057231 147.67004949 162.43318737 149.41644436 C162.43647898 153.23659665 162.42548375 157.0565729 162.41455078 160.87670898 C162.41287239 163.61662405 162.41421533 166.3565357 162.41543579 169.09645081 C162.41648318 174.99334469 162.41022188 180.89019422 162.39896011 186.78707695 C162.38268823 195.31291446 162.37749538 203.83873059 162.37498413 212.36458195 C162.37060968 226.19806353 162.35730735 240.03152148 162.33837891 253.86499023 C162.32001365 267.30086143 162.3058603 280.7367262 162.29736328 294.17260742 C162.29683783 295.00115313 162.29631239 295.82969883 162.29577102 296.68335199 C162.29316089 300.84002931 162.29063349 304.99670669 162.28814721 309.15338409 C162.26742249 343.62310639 162.23220375 378.09280065 162.1875 412.5625 C161.25083496 412.8929834 160.31416992 413.2234668 159.34912109 413.56396484 C158.10727051 414.00434082 156.86541992 414.4447168 155.5859375 414.8984375 C154.36052246 415.3320459 153.13510742 415.7656543 151.87255859 416.21240234 C147.55523885 417.79414199 143.32556276 419.5377987 139.1015625 421.3515625 C133.03771113 423.8713935 126.87236701 426.02401495 120.65234375 428.12109375 C119.96567627 428.35320557 119.27900879 428.58531738 118.5715332 428.82446289 C112.78661899 430.77941087 112.78661899 430.77941087 109.94799805 431.72583008 C107.82627957 432.43418824 105.70789822 433.15186524 103.58984375 433.87109375 C102.95110825 434.08164902 102.31237274 434.29220428 101.65428162 434.50914001 C97.11749294 436.06181288 93.29289897 438.13622763 89.1875 440.5625 C86.421875 441.609375 86.421875 441.609375 83.9375 442.3125 C83.10734375 442.55484375 82.2771875 442.7971875 81.421875 443.046875 C79.1875 443.5625 79.1875 443.5625 76.1875 443.5625 C76.1875 444.2225 76.1875 444.8825 76.1875 445.5625 C74.5375 445.5625 72.8875 445.5625 71.1875 445.5625 C70.8575 401.3425 70.5275 357.1225 70.1875 311.5625 C64.2475 313.8725 58.3075 316.1825 52.1875 318.5625 C49.5475 318.8925 46.9075 319.2225 44.1875 319.5625 C44.0625 312.8125 44.0625 312.8125 45.1875 310.5625 C46.48876052 301.48116776 46.33945847 292.36652559 46.31787109 283.21264648 C46.31250601 280.50303571 46.31784378 277.79359015 46.32421875 275.08398438 C46.32355797 273.33593714 46.32227682 271.58789001 46.3203125 269.83984375 C46.32334885 268.64415016 46.32334885 268.64415016 46.32644653 267.42430115 C46.2849443 257.31426361 45.3756362 246.75540803 41.5625 237.3125 C40.18952858 233.5680325 39.6723238 231.47987939 40.1875 227.5625 C42.27734375 225.578125 42.27734375 225.578125 45.125 223.8125 C57.70041849 215.30512446 66.32955254 202.8652981 71.1875 188.5625 C71.56003906 187.59570312 71.93257812 186.62890625 72.31640625 185.6328125 C78.41439228 167.91253255 75.84350271 149.92290327 69.85180664 132.5793457 C69.19657249 130.59004422 68.67002813 128.59987279 68.1875 126.5625 C67.5275 126.5625 66.8675 126.5625 66.1875 126.5625 C64.71515933 124.40046818 63.34770245 122.23772121 62 120 C56.09972487 110.56026769 49.49734727 104.67959236 40.1875 98.5625 C39.45144531 98.03527344 38.71539062 97.50804688 37.95703125 96.96484375 C23.52906513 87.25514538 3.37123933 84.63773491 -13.45703125 87.7734375 C-24.06952388 90.26904112 -33.75867409 93.28981594 -42.8125 99.5625 C-43.65683594 100.06652344 -44.50117188 100.57054687 -45.37109375 101.08984375 C-54.98993207 107.2464587 -61.17500972 116.44598224 -67.8125 125.5625 C-68.50359863 125.43625244 -69.19469727 125.31000488 -69.90673828 125.17993164 C-76.55594037 123.96772482 -83.20928844 122.7824832 -89.8671875 121.61914062 C-95.50826844 120.62884057 -95.50826844 120.62884057 -98.24316406 120.0324707 C-117.86336533 116.44363685 -139.49270488 120.94337762 -158.8125 124.5625 C-155.5727244 92.27913244 -133.75591887 63.59198315 -111.22607422 41.68554688 C-109.8125 40.5625 -109.8125 40.5625 -107.8125 40.5625 C-107.55146484 39.95583496 -107.29042969 39.34916992 -107.02148438 38.72412109 C-105.71429617 36.38691504 -104.66753475 35.45806801 -102.46875 33.9765625 C-101.47125732 33.29654175 -101.47125732 33.29654175 -100.45361328 32.6027832 C-99.7470459 32.13573975 -99.04047852 31.66869629 -98.3125 31.1875 C-97.59433105 30.70434326 -96.87616211 30.22118652 -96.13623047 29.72338867 C-80.93328873 19.5625 -80.93328873 19.5625 -77.8125 19.5625 C-77.8125 18.9025 -77.8125 18.2425 -77.8125 17.5625 C-52.73985447 5.06315754 -28.01318812 -0.24612359 0 0 Z " fill="#F2511C" transform="translate(307.8125,27.4375)"/>
<path d="M0 0 C1.22009766 -0.01998047 2.44019531 -0.03996094 3.69726562 -0.06054688 C15.45652414 -0.05429528 25.80547457 2.93385676 36.125 8.5 C36.83897949 8.88212646 37.55295898 9.26425293 38.28857422 9.65795898 C45.36557778 13.61565057 50.98194553 18.60603688 56.5625 24.4375 C57.25988281 25.16195312 57.95726562 25.88640625 58.67578125 26.6328125 C73.45701051 42.77505431 78.23939418 63.13346709 77.65576172 84.47705078 C77.45864317 88.62066853 76.7104523 92.4618234 75.5625 96.4375 C75.14291016 97.91669922 75.14291016 97.91669922 74.71484375 99.42578125 C72.76003881 105.78087584 70.34574855 110.97280765 66.5625 116.4375 C59.68029974 114.87674184 53.20029295 112.61659588 46.6875 109.9375 C45.96248291 109.64093506 45.23746582 109.34437012 44.49047852 109.03881836 C40.67134836 107.43958802 36.96129556 105.8366498 33.5625 103.4375 C33.5625 102.7775 33.5625 102.1175 33.5625 101.4375 C32.69109375 101.18226563 31.8196875 100.92703125 30.921875 100.6640625 C27.46872409 99.40326089 24.8489811 97.87238313 21.8125 95.8125 C20.86890625 95.18085938 19.9253125 94.54921875 18.953125 93.8984375 C10.40901533 87.82139154 2.76700688 80.98291582 -4.625 73.5625 C-5.47513672 72.72847656 -6.32527344 71.89445312 -7.20117188 71.03515625 C-12.67116635 65.56938571 -17.22570577 59.91685108 -21.4375 53.4375 C-22.39462891 52.00664062 -22.39462891 52.00664062 -23.37109375 50.546875 C-25.08478067 47.85838954 -26.76994131 45.1548708 -28.4375 42.4375 C-29.11167969 41.34308594 -29.78585938 40.24867188 -30.48046875 39.12109375 C-41.39042794 20.99228464 -41.39042794 20.99228464 -41.453125 12.26171875 C-39.77202803 9.24220996 -37.17696304 8.365959 -34.125 6.875 C-32.39830078 6.00681641 -32.39830078 6.00681641 -30.63671875 5.12109375 C-20.63846783 0.825503 -10.78423231 -0.06246791 0 0 Z " fill="#F2511C" transform="translate(194.4375,230.5625)"/>
</svg>
